# xmcd CD database file
#
# Track frame offsets:
#	182
#	14070
#	28350
#	41232
#	56870
#	69097
#	85732
#	101782
#	117292
#	132077
#	148622
#	162982
#	178022
#
# Disc length: 2563 seconds
#
# Revision: 0
# Processed by: cddbd v1.5.1PL0 Copyright (c) Steve Scherf et al.
# Submitted via: Feurio! 1.61 - http://www.feurio.com
#
DISCID=bc0a010d
DTITLE=Truck Stop - Hände hoch
DYEAR=1997
DGENRE=Country
TTITLE0=Komm ma´auf´n Punkt
TTITLE1=Cowboys küssen besser
TTITLE2=Hey, mach mal Pause
TTITLE3=Dann pfeif drauf
TTITLE4=Zwei sind einer zuviel
TTITLE5=Auf die harte Tour
TTITLE6=California
TTITLE7=und ohne sie schon gar nicht
TTITLE8=Sag Mami goodbey
TTITLE9=Freunde findest du tief unten
TTITLE10=Country Boy
TTITLE11=Weißer Mann
TTITLE12=Keine Angst (die Nacht ist warm)
EXTD=
EXTT0=
EXTT1=
EXTT2=
EXTT3=
EXTT4=
EXTT5=
EXTT6=
EXTT7=
EXTT8=
EXTT9=
EXTT10=
EXTT11=
EXTT12=
PLAYORDER=
